<svg width="23" height="22" viewBox="0 0 23 22" fill="none" xmlns="http://www.w3.org/2000/svg">
<g id="icons / search">
<path id="Vector (Stroke)" fill-rule="evenodd" clip-rule="evenodd" d="M10.5833 3.66668C7.03942 3.66668 4.16659 6.53952 4.16659 10.0833C4.16659 13.6272 7.03942 16.5 10.5833 16.5C14.1271 16.5 16.9999 13.6272 16.9999 10.0833C16.9999 6.53952 14.1271 3.66668 10.5833 3.66668ZM2.33325 10.0833C2.33325 5.52699 6.0269 1.83334 10.5833 1.83334C15.1396 1.83334 18.8333 5.52699 18.8333 10.0833C18.8333 14.6397 15.1396 18.3333 10.5833 18.3333C6.0269 18.3333 2.33325 14.6397 2.33325 10.0833Z" fill="#161719"/>
<path id="Vector (Stroke)_2" fill-rule="evenodd" clip-rule="evenodd" d="M15.1142 14.6143C15.4722 14.2563 16.0526 14.2563 16.4106 14.6143L20.398 18.6018C20.756 18.9598 20.756 19.5402 20.398 19.8982C20.0401 20.2562 19.4597 20.2562 19.1017 19.8982L15.1142 15.9107C14.7562 15.5527 14.7562 14.9723 15.1142 14.6143Z" fill="#161719"/>
</g>
</svg>
