<svg width="22" height="22" viewBox="0 0 22 22" fill="none" xmlns="http://www.w3.org/2000/svg">
<g id="icons / home">
<path id="Vector (Stroke)" fill-rule="evenodd" clip-rule="evenodd" d="M10.4371 1.10975C10.7682 0.852292 11.2317 0.852292 11.5627 1.10975L19.8127 7.52642C20.036 7.70008 20.1666 7.96711 20.1666 8.24999V18.3333C20.1666 19.0627 19.8769 19.7621 19.3611 20.2779C18.8454 20.7936 18.1459 21.0833 17.4166 21.0833H4.58325C3.85391 21.0833 3.15443 20.7936 2.63871 20.2779C2.12298 19.7621 1.83325 19.0627 1.83325 18.3333V8.24999C1.83325 7.96711 1.96385 7.70008 2.18714 7.52642L10.4371 1.10975ZM3.66659 8.69832V18.3333C3.66659 18.5764 3.76316 18.8096 3.93507 18.9815C4.10698 19.1534 4.34014 19.25 4.58325 19.25H17.4166C17.6597 19.25 17.8929 19.1534 18.0648 18.9815C18.2367 18.8096 18.3333 18.5764 18.3333 18.3333V8.69832L10.9999 2.99461L3.66659 8.69832Z" fill="#161719"/>
<path id="Vector 3 (Stroke)" fill-rule="evenodd" clip-rule="evenodd" d="M12.5415 11.8462C14.9103 10.5723 17.6768 10.6236 19.4886 11.0262L19.0114 13.1738C17.5232 12.8431 15.3397 12.8393 13.5835 13.7838C11.9318 14.6721 10.45 16.5094 10.45 20.35H8.25C8.25 15.8306 10.0682 13.1763 12.5415 11.8462Z" fill="#161719"/>
</g>
</svg>
