<svg width="21" height="21" viewBox="0 0 21 21" fill="none" xmlns="http://www.w3.org/2000/svg">
<g id="icons / award" clip-path="url(#clip0_152_1295)">
<path id="Vector (Stroke)" fill-rule="evenodd" clip-rule="evenodd" d="M10.5 2.16667C7.73856 2.16667 5.49998 4.40524 5.49998 7.16667C5.49998 9.92809 7.73856 12.1667 10.5 12.1667C13.2614 12.1667 15.5 9.92809 15.5 7.16667C15.5 4.40524 13.2614 2.16667 10.5 2.16667ZM3.83331 7.16667C3.83331 3.48477 6.81808 0.5 10.5 0.5C14.1819 0.5 17.1666 3.48477 17.1666 7.16667C17.1666 10.8486 14.1819 13.8333 10.5 13.8333C6.81808 13.8333 3.83331 10.8486 3.83331 7.16667Z" fill="#161719"/>
<path id="Vector (Stroke)_2" fill-rule="evenodd" clip-rule="evenodd" d="M13.5487 11.2406C14.005 11.18 14.4239 11.5008 14.4844 11.957L15.4928 19.557C15.5348 19.8742 15.3916 20.1875 15.1241 20.3632C14.8567 20.5388 14.5123 20.5458 14.2379 20.3812L10.5 18.1385L6.76207 20.3812C6.48768 20.5459 6.14324 20.5388 5.87579 20.3631C5.60834 20.1874 5.46511 19.8741 5.50724 19.5569L6.51558 11.9653C6.57617 11.509 6.99515 11.1883 7.45138 11.2489C7.90761 11.3095 8.22833 11.7285 8.16774 12.1847L7.38703 18.0626L10.0712 16.4521C10.3351 16.2937 10.6648 16.2937 10.9287 16.4521L13.6132 18.0628L12.8322 12.1762C12.7717 11.72 13.0925 11.3011 13.5487 11.2406Z" fill="#161719"/>
</g>
<defs>
<clipPath id="clip0_152_1295">
<rect width="20" height="20" fill="white" transform="translate(0.5 0.5)"/>
</clipPath>
</defs>
</svg>
