<svg width="13" height="13" viewBox="0 0 13 13" fill="none" xmlns="http://www.w3.org/2000/svg">
<g id="star">
<path id="Vector" d="M6.05164 1.99166C6.23506 1.62007 6.76493 1.62007 6.94835 1.99166L8.05752 4.23872C8.13029 4.38615 8.27088 4.48838 8.43356 4.51215L10.9148 4.87482C11.3247 4.93474 11.4881 5.43866 11.1913 5.72774L9.39672 7.47568C9.27879 7.59055 9.22495 7.75612 9.25278 7.91838L9.67621 10.3872C9.74627 10.7956 9.31749 11.1071 8.95068 10.9142L6.73272 9.74781C6.58703 9.6712 6.41296 9.6712 6.26727 9.74781L4.04931 10.9142C3.6825 11.1071 3.25372 10.7956 3.32378 10.3872L3.74721 7.91838C3.77504 7.75612 3.7212 7.59055 3.60327 7.47568L1.80867 5.72774C1.51187 5.43866 1.67526 4.93474 2.08522 4.87482L4.56643 4.51215C4.72911 4.48838 4.8697 4.38615 4.94247 4.23872L6.05164 1.99166Z" fill="#FFC960"/>
</g>
</svg>
