<svg width="23" height="22" viewBox="0 0 23 22" fill="none" xmlns="http://www.w3.org/2000/svg">
<g id="icons / play-circle">
<path id="Vector (Stroke)" fill-rule="evenodd" clip-rule="evenodd" d="M11.5001 2.74999C6.94373 2.74999 3.25008 6.44364 3.25008 11C3.25008 15.5563 6.94373 19.25 11.5001 19.25C16.0564 19.25 19.7501 15.5563 19.7501 11C19.7501 6.44364 16.0564 2.74999 11.5001 2.74999ZM1.41675 11C1.41675 5.43112 5.93121 0.916656 11.5001 0.916656C17.069 0.916656 21.5834 5.43112 21.5834 11C21.5834 16.5689 17.069 21.0833 11.5001 21.0833C5.93121 21.0833 1.41675 16.5689 1.41675 11Z" fill="#161719"/>
<path id="Vector (Stroke)_2" fill-rule="evenodd" clip-rule="evenodd" d="M9.23413 6.52512C9.53219 6.36561 9.89386 6.38309 10.1751 6.57061L15.6751 10.2373C15.9302 10.4073 16.0833 10.6935 16.0833 11C16.0833 11.3065 15.9302 11.5927 15.6751 11.7627L10.1751 15.4294C9.89386 15.6169 9.53219 15.6344 9.23413 15.4749C8.93607 15.3153 8.75 15.0047 8.75 14.6667V7.33332C8.75 6.99526 8.93607 6.68464 9.23413 6.52512ZM10.5833 9.04613V12.9539L13.5141 11L10.5833 9.04613Z" fill="#161719"/>
</g>
</svg>
